<?xml version="1.0" standalone="no"?>
<!DOCTYPE svg PUBLIC "-//W3C//DTD SVG 20010904//EN"
 "http://www.w3.org/TR/2001/REC-SVG-20010904/DTD/svg10.dtd">
<svg version="1.0" xmlns="http://www.w3.org/2000/svg"
 width="1080.000000pt" height="1080.000000pt" viewBox="0 0 1080.000000 1080.000000"
 preserveAspectRatio="xMidYMid meet">

<g transform="translate(0.000000,1080.000000) scale(0.100000,-0.100000)"
fill="#000000" stroke="none">
<path d="M9246 6787 c3 -10 9 -15 12 -12 3 3 0 11 -7 18 -10 9 -11 8 -5 -6z"/>
<path d="M9280 6715 c0 -5 5 -17 10 -25 5 -8 10 -10 10 -5 0 6 -5 17 -10 25
-5 8 -10 11 -10 5z"/>
<path d="M9301 6665 c0 -5 6 -21 14 -35 8 -14 14 -20 14 -15 0 6 -6 21 -14 35
-8 14 -14 21 -14 15z"/>
<path d="M9330 6595 c0 -5 5 -17 10 -25 5 -8 10 -10 10 -5 0 6 -5 17 -10 25
-5 8 -10 11 -10 5z"/>
<path d="M9351 6544 c-1 -6 5 -27 13 -45 7 -19 17 -44 20 -56 l7 -23 -266 0
-267 0 36 -49 c20 -27 36 -54 36 -60 0 -6 -16 -11 -35 -11 -34 0 -34 -1 -28
-32 6 -36 20 -58 35 -58 6 0 24 -10 41 -22 33 -24 164 -104 347 -213 292 -173
315 -186 318 -170 5 24 -37 310 -69 461 -16 78 -29 144 -29 148 0 3 -23 6 -51
6 -49 0 -50 1 -65 38 -24 61 -43 98 -43 86z"/>
<path d="M1261 5994 c0 -11 3 -14 6 -6 3 7 2 16 -1 19 -3 4 -6 -2 -5 -13z"/>
<path d="M1251 5954 c0 -11 3 -14 6 -6 3 7 2 16 -1 19 -3 4 -6 -2 -5 -13z"/>
<path d="M8796 5935 c6 -34 6 -35 -28 -35 -33 0 -34 -2 -30 -30 4 -25 1 -30
-17 -30 -17 0 -21 -6 -21 -35 0 -28 -4 -35 -20 -35 -11 0 -20 -6 -20 -12 0
-39 -22 -88 -39 -88 -14 0 -21 -13 -30 -60 l-12 -60 -37 0 c-36 0 -38 -2 -60
-60 -19 -49 -28 -60 -46 -60 -18 0 -27 -12 -48 -62 -18 -45 -32 -64 -46 -66
-14 -2 -28 -22 -46 -63 -25 -57 -26 -59 -64 -59 -34 0 -40 -4 -55 -35 -10 -22
-24 -35 -36 -35 -12 0 -23 -11 -29 -29 -7 -19 -19 -31 -33 -33 -18 -2 -29 -17
-48 -65 -24 -62 -25 -63 -61 -63 -35 0 -40 -4 -71 -57 -28 -48 -39 -59 -64
-61 -34 -4 -91 -53 -99 -87 -5 -19 -17 -26 -62 -36 -34 -8 -59 -19 -65 -31 -6
-11 -21 -18 -38 -18 -17 0 -31 -7 -35 -16 -5 -12 -18 -15 -57 -13 -34 2 -53
-2 -59 -10 -5 -8 -18 -12 -34 -9 -14 3 -26 2 -26 -2 0 -3 -8 -15 -17 -26 -10
-11 -29 -42 -43 -68 -14 -27 -35 -59 -47 -72 -13 -13 -23 -30 -23 -39 0 -8 -4
-15 -8 -15 -5 0 -41 -47 -82 -105 -66 -94 -77 -105 -104 -105 -26 -1 -38 -11
-79 -65 -36 -49 -54 -65 -72 -65 -13 0 -27 -5 -31 -11 -4 -7 -39 -26 -78 -44
-39 -19 -82 -45 -95 -59 -16 -17 -35 -26 -55 -26 -17 0 -44 -9 -61 -20 -23
-15 -47 -20 -107 -20 -45 0 -80 -5 -84 -11 -4 -7 -21 -9 -44 -5 -24 4 -43 1
-56 -9 -10 -8 -40 -15 -65 -15 -33 0 -53 -6 -71 -22 -14 -13 -34 -28 -44 -34
-10 -6 -22 -25 -25 -43 -4 -18 -16 -39 -28 -47 -12 -8 -21 -22 -21 -30 0 -8
-8 -14 -19 -14 -10 0 -21 -9 -24 -20 -3 -11 0 -20 6 -20 7 0 -1 -9 -18 -20
l-30 -20 78 0 c50 0 76 -4 72 -10 -3 -6 -48 -10 -101 -10 -95 0 -153 -17 -176
-52 -18 -29 -8 -38 45 -38 48 -1 50 -2 28 -14 -21 -12 -18 -13 45 -19 105 -10
388 -8 489 3 132 16 237 45 351 99 236 112 362 237 479 471 20 41 51 90 68
108 30 31 34 32 112 32 79 0 82 -1 113 -33 l33 -33 24 -370 c14 -203 25 -412
25 -465 0 -95 0 -95 -33 -127 l-33 -32 -1435 0 -1435 0 -32 33 c-23 24 -32 42
-32 67 0 51 -10 80 -27 80 -11 0 -14 7 -11 25 5 23 2 25 -34 25 -36 0 -38 2
-28 20 9 17 8 20 -11 20 -18 0 -19 2 -9 15 11 13 8 15 -15 15 l-26 0 21 28 22
27 -22 3 -22 4 23 24 22 24 -66 0 c-37 0 -67 3 -67 7 0 3 7 14 16 24 14 16 12
18 -26 24 l-42 7 33 34 33 34 -53 0 c-46 0 -52 2 -41 15 10 13 9 15 -10 15
-19 0 -20 2 -10 15 10 13 9 15 -10 15 -22 0 -23 1 -5 20 18 20 17 20 -10 20
l-28 0 23 25 23 25 -48 0 c-38 0 -46 3 -37 12 17 17 15 38 -3 38 -8 0 -15 5
-15 10 0 6 -7 10 -16 10 -13 0 -15 7 -11 35 5 32 3 35 -17 35 -45 0 -86 13
-86 26 0 8 -7 14 -16 14 -12 0 -15 7 -12 25 5 23 2 25 -32 25 -33 0 -37 3 -33
20 4 14 0 20 -11 20 -9 0 -16 5 -16 10 0 6 -76 10 -207 10 -142 0 -224 4 -258
14 -54 14 -160 78 -169 102 -3 8 -18 14 -34 14 -22 0 -33 8 -49 38 -11 20 -23
49 -27 65 -5 20 -12 27 -31 27 -14 0 -25 4 -25 9 0 5 -12 11 -27 13 -26 3 -29
7 -37 66 l-10 62 -39 0 -39 0 6 38 c4 20 9 45 12 55 4 13 -1 17 -19 17 l-25 0
14 53 c18 68 18 67 -10 67 -24 0 -24 0 -12 48 7 26 16 57 20 70 6 18 4 22 -13
22 -12 0 -21 1 -21 3 0 1 4 16 9 34 l9 31 -104 26 c-90 23 -124 26 -262 26
l-159 0 -91 65 c-74 53 -98 65 -129 65 -28 0 -48 8 -73 30 -25 21 -46 29 -72
30 -30 0 -42 6 -64 35 -24 32 -31 35 -80 35 l-53 0 -42 60 c-36 52 -46 60 -74
60 -28 0 -35 7 -69 64 -30 51 -44 66 -64 68 -23 3 -30 11 -46 61 l-18 57 -44
0 c-43 0 -43 1 -54 43 -6 23 -13 50 -16 60 -3 10 -15 17 -29 17 -19 0 -25 8
-35 50 -10 43 -15 50 -36 50 -19 0 -26 7 -31 31 -3 19 -14 34 -24 36 -16 4
-18 13 -14 47 2 22 2 32 -1 21 -8 -28 -24 -43 -24 -22 0 9 -6 17 -14 17 -16 0
-21 -32 -37 -240 -13 -159 -6 -570 10 -612 5 -14 42 -50 83 -81 190 -144 229
-175 314 -246 51 -42 127 -103 169 -136 42 -33 82 -65 89 -71 10 -9 112 -88
211 -164 93 -71 346 -260 385 -288 206 -146 520 -359 545 -370 37 -16 92 -18
136 -4 304 95 582 15 864 -249 271 -255 431 -572 371 -737 -39 -108 -122 -165
-262 -180 -230 -25 -534 67 -794 241 -250 168 -347 318 -381 589 -14 113 -27
137 -105 200 -93 74 -394 277 -626 423 -104 65 -251 156 -283 175 -16 10 -59
36 -95 58 -36 23 -112 69 -170 102 -58 34 -145 86 -195 116 -49 30 -97 57
-105 61 -8 4 -30 18 -48 31 l-33 25 6 -29 c102 -442 256 -844 460 -1200 676
-1178 1881 -1969 3210 -2109 83 -8 186 -20 230 -25 103 -13 377 -13 480 0 44
5 147 17 230 25 938 99 1836 529 2515 1205 609 607 1012 1364 1174 2205 35
185 77 543 80 685 l1 44 -142 111 c-78 60 -189 148 -248 195 -120 95 -132 105
-271 210 -55 41 -108 82 -118 92 -11 10 -30 18 -43 18 -22 0 -23 -3 -17 -35z"/>
<path d="M7371 3888 c-23 -46 -62 -112 -86 -148 -49 -73 -182 -209 -264 -270
-69 -51 -226 -131 -311 -159 -155 -50 -188 -53 -668 -58 l-454 -5 6 46 c6 41
4 46 -12 46 -15 0 -18 5 -14 25 3 20 1 24 -12 19 -12 -5 -16 0 -16 20 0 14 -1
26 -3 26 -1 0 -17 -4 -36 -10 -32 -9 -33 -8 -28 16 4 21 1 25 -14 21 -12 -3
-19 0 -19 9 0 8 -9 14 -20 14 -13 0 -18 5 -14 15 4 10 0 15 -16 15 -13 0 -19
4 -14 11 4 8 -1 9 -17 4 -63 -18 -60 -18 -53 9 4 16 2 26 -5 26 -6 0 -11 -11
-11 -25 0 -22 -4 -25 -39 -25 -25 0 -41 -5 -45 -15 -3 -8 -12 -15 -20 -15 -8
0 -18 -9 -21 -20 -3 -11 -15 -20 -25 -20 -12 0 -20 -10 -24 -35 -5 -26 -12
-35 -27 -35 -11 0 -22 -7 -25 -15 -4 -8 -17 -15 -30 -15 -13 0 -24 -4 -24 -9
0 -19 -32 -41 -61 -41 -20 0 -40 -10 -60 -30 -16 -16 -45 -32 -64 -36 -18 -3
-43 -17 -56 -30 l-22 -24 1371 0 1372 0 0 41 c0 50 -38 632 -46 707 -3 31 -10
52 -18 52 -6 0 -31 -37 -55 -82z"/>
</g>
</svg>
