<svg width="52" height="52" viewBox="0 0 52 52" fill="none" xmlns="http://www.w3.org/2000/svg">
<g filter="url(#filter0_d_394_243)">
<path d="M16.3999 23.2438C16.3999 22.8498 16.6005 22.4801 16.9381 22.2518L25.2581 16.6252C25.7022 16.3249 26.2976 16.3249 26.7417 16.6252L35.0617 22.2518C35.3994 22.4801 35.5999 22.8498 35.5999 23.2438V33.7741C35.5999 34.7825 34.7403 35.6 33.6799 35.6H18.3199C17.2595 35.6 16.3999 34.7825 16.3999 33.7741V23.2438Z" fill="#FFB986"/>
<path d="M22.7999 35.6V28.2963C22.7999 27.6241 23.373 27.0791 24.0799 27.0791H27.9199C28.6268 27.0791 29.1999 27.6241 29.1999 28.2963V35.6M25.2581 16.6252L16.9381 22.2518C16.6005 22.4801 16.3999 22.8498 16.3999 23.2438V33.7741C16.3999 34.7825 17.2595 35.6 18.3199 35.6H33.6799C34.7403 35.6 35.5999 34.7825 35.5999 33.7741V23.2438C35.5999 22.8498 35.3994 22.4801 35.0617 22.2518L26.7417 16.6252C26.2976 16.3249 25.7022 16.3249 25.2581 16.6252Z" stroke="#671F00" stroke-width="2" stroke-linecap="round"/>
</g>
<defs>
<filter id="filter0_d_394_243" x="0.399902" y="0.399994" width="51.2" height="51.2" filterUnits="userSpaceOnUse" color-interpolation-filters="sRGB">
<feFlood flood-opacity="0" result="BackgroundImageFix"/>
<feColorMatrix in="SourceAlpha" type="matrix" values="0 0 0 0 0 0 0 0 0 0 0 0 0 0 0 0 0 0 127 0" result="hardAlpha"/>
<feOffset/>
<feGaussianBlur stdDeviation="7.5"/>
<feComposite in2="hardAlpha" operator="out"/>
<feColorMatrix type="matrix" values="0 0 0 0 0.658333 0 0 0 0 0.2765 0 0 0 0 0 0 0 0 0.25 0"/>
<feBlend mode="normal" in2="BackgroundImageFix" result="effect1_dropShadow_394_243"/>
<feBlend mode="normal" in="SourceGraphic" in2="effect1_dropShadow_394_243" result="shape"/>
</filter>
</defs>
</svg>
