<svg width="20" height="25" viewBox="0 0 20 25" fill="none" xmlns="http://www.w3.org/2000/svg">
<path d="M1.11877 19.3625L0.321087 18.7594L0.321087 18.7594L1.11877 19.3625ZM2.42712 15.635L1.42712 15.6228V15.635H2.42712ZM2.45458 13.3814L3.45458 13.3936V13.3814H2.45458ZM18.8883 19.3806L19.6979 18.7936L19.6979 18.7936L18.8883 19.3806ZM17.6291 15.635L16.6291 15.6222V15.635H17.6291ZM17.6566 13.4931L18.6566 13.5059V13.4931H17.6566ZM14.6 20.425C14.6 19.8727 14.1523 19.425 13.6 19.425C13.0477 19.425 12.6 19.8727 12.6 20.425H14.6ZM7.40001 20.425C7.40001 19.8727 6.95229 19.425 6.40001 19.425C5.84772 19.425 5.40001 19.8727 5.40001 20.425H7.40001ZM0.0718066 6.03229C-0.133698 6.54492 0.115275 7.12708 0.627902 7.33259C1.14053 7.53809 1.72269 7.28912 1.92819 6.77649L0.0718066 6.03229ZM4.64253 3.68029C5.12876 3.41837 5.31059 2.81187 5.04867 2.32565C4.78674 1.83942 4.18025 1.65759 3.69402 1.91951L4.64253 3.68029ZM16.293 1.93434C15.8096 1.66726 15.2012 1.84264 14.9342 2.32606C14.6671 2.80947 14.8425 3.41786 15.3259 3.68494L16.293 1.93434ZM18.0679 6.75675C18.2679 7.27154 18.8474 7.52672 19.3622 7.3267C19.877 7.12669 20.1322 6.54722 19.9322 6.03243L18.0679 6.75675ZM1.91645 19.9656C2.6708 18.9678 3.42712 17.4695 3.42712 15.635H1.42712C1.42712 16.9111 0.898263 17.996 0.321087 18.7594L1.91645 19.9656ZM3.42705 15.6472L3.45451 13.3936L1.45466 13.3692L1.4272 15.6228L3.42705 15.6472ZM19.6979 18.7936C19.1452 18.0313 18.6291 16.9339 18.6291 15.635H16.6291C16.6291 17.4681 17.3539 18.9679 18.0786 19.9675L19.6979 18.7936ZM18.6291 15.6479L18.6565 13.5059L16.6567 13.4803L16.6292 15.6222L18.6291 15.6479ZM18.6566 13.4931C18.6566 8.69651 14.7854 4.8 10 4.8V6.8C13.6719 6.8 16.6566 9.7921 16.6566 13.4931H18.6566ZM18.43 21.425C19.1898 21.425 19.6667 20.8894 19.859 20.4355C20.0507 19.9831 20.0898 19.3341 19.6979 18.7936L18.0786 19.9675C17.9626 19.8074 18.0067 19.6807 18.0175 19.6554C18.0288 19.6286 18.1387 19.425 18.43 19.425V21.425ZM3.45458 13.3814C3.45458 9.74211 6.38956 6.8 10 6.8V4.8C5.27604 4.8 1.45458 8.64652 1.45458 13.3814H3.45458ZM1.57109 19.425C1.7057 19.425 1.81669 19.4769 1.88642 19.5329C1.94917 19.5833 1.97456 19.632 1.98443 19.656C1.99471 19.681 2.00238 19.7133 1.99933 19.7574C1.99613 19.8039 1.97867 19.8833 1.91645 19.9655L0.321087 18.7594C-0.088163 19.3007 -0.052834 19.9602 0.134504 20.4161C0.322146 20.8728 0.798679 21.425 1.57109 21.425V19.425ZM18.43 19.425H1.57109V21.425H18.43V19.425ZM12.6 20.425C12.6 21.6769 11.4977 22.8001 10 22.8001V24.8001C12.4788 24.8001 14.6 22.9011 14.6 20.425H12.6ZM10 22.8001C8.50231 22.8001 7.40001 21.6769 7.40001 20.425H5.40001C5.40001 22.9011 7.52128 24.8001 10 24.8001V22.8001ZM11.4 3.4C11.4 4.1732 10.7732 4.8 10 4.8V6.8C11.8778 6.8 13.4 5.27777 13.4 3.4H11.4ZM10 4.8C9.22682 4.8 8.60001 4.17319 8.60001 3.4H6.60001C6.60001 5.27777 8.12226 6.8 10 6.8V4.8ZM8.60001 3.4C8.60001 2.62681 9.22682 2 10 2V0C8.12226 0 6.60001 1.52223 6.60001 3.4H8.60001ZM10 2C10.7732 2 11.4 2.6268 11.4 3.4H13.4C13.4 1.52223 11.8778 0 10 0V2ZM1.92819 6.77649C2.46301 5.44239 3.41497 4.34157 4.64253 3.68029L3.69402 1.91951C2.02696 2.81754 0.769051 4.29303 0.0718066 6.03229L1.92819 6.77649ZM15.3259 3.68494C16.5894 4.38301 17.5652 5.46289 18.0679 6.75675L19.9322 6.03243C19.2476 4.27053 17.936 2.84204 16.293 1.93434L15.3259 3.68494Z" fill="#222222"/>
</svg>
